<svg width="30" height="24" viewBox="0 0 30 24" fill="none" xmlns="http://www.w3.org/2000/svg">
<path d="M0 6.17058C0 4.40756 0.589582 2.83915 1.76302 1.76302C2.93646 0.589583 4.40756 0 6.07327 0C7.73898 0 9.20435 0.589583 10.3778 1.76302C11.5512 2.83915 12.2381 4.69949 12.2381 6.85175C12.2381 10.6697 11.162 14.1958 9.20435 17.1322C7.29823 19.8054 4.55066 21.9176 0.967373 23.0223C0.79565 23.0738 0.606754 23.0338 0.469376 22.9193C0.22324 22.7075 0.234688 22.3354 0.4751 22.1236C3.62908 19.4104 5.40927 16.2221 5.82141 12.7876C5.85575 12.5072 5.64396 12.2438 5.36348 12.2152C4.06983 12.095 2.80481 11.5169 1.76302 10.4751C0.589582 9.39897 0 7.83057 0 6.17058ZM17.6188 6.17058C17.6188 4.40756 18.3057 2.83915 19.4791 1.76302C20.6525 0.589583 22.1236 0 23.7836 0C25.352 0 26.9147 0.589583 28.0939 1.76302C29.17 2.83915 29.8569 4.69949 29.8569 6.85175C29.8569 10.6583 28.8838 14.1786 26.9319 17.1093C26.9204 17.1265 26.9147 17.138 26.9033 17.1494C24.8998 19.8168 22.1523 21.9233 18.6606 23.0223C18.5003 23.0738 18.3228 23.0395 18.1855 22.9422L18.1454 22.9078C17.8764 22.7075 17.8706 22.3125 18.1225 22.095C21.265 19.3875 23.1139 16.2164 23.5375 12.7876C23.5718 12.5014 23.36 12.2381 23.0738 12.2152C21.723 12.1007 20.5209 11.5169 19.4791 10.4751C18.3057 9.39897 17.6188 7.83057 17.6188 6.17058Z" fill="#D33F48"/>
</svg>
